<svg xmlns="http://www.w3.org/2000/svg" width="800" height="1100" viewBox="0 0 800 1100" font-family="Arial, sans-serif">

  <rect width="800" height="1100" fill="#ffffff"/>

  <!-- ── NAV ── -->
  <rect x="0" y="0" width="800" height="60" fill="#1a1a2e"/>
  <text x="24" y="37" fill="#ffffff" font-size="17" font-weight="bold">Koi's Story</text>
  <text x="530" y="37" fill="#cccccc" font-size="13">Catalogue</text>
  <text x="625" y="37" fill="#cccccc" font-size="13">Elevage</text>
  <text x="712" y="37" fill="#cccccc" font-size="13">Contact</text>

  <!-- ── HERO ── -->
  <rect x="0" y="60" width="800" height="280" fill="#c8d4e0"/>
  <line x1="0" y1="60" x2="800" y2="340" stroke="#a8bccb" stroke-width="1"/>
  <line x1="800" y1="60" x2="0" y2="340" stroke="#a8bccb" stroke-width="1"/>
  <text x="400" y="162" fill="#7090a8" font-size="11" text-anchor="middle">[ IMAGE HERO  BASSIN KOI ]</text>
  <rect x="0" y="200" width="800" height="140" fill="#000000" opacity="0.42"/>
  <text x="400" y="246" fill="#ffffff" font-size="22" text-anchor="middle" font-weight="bold">Carpes Koi d'Exception</text>
  <text x="400" y="272" fill="#c8b89a" font-size="15" text-anchor="middle">Lignee Konishi</text>
  <rect x="280" y="286" width="240" height="42" rx="21" fill="#2d6a4f"/>
  <text x="400" y="313" fill="#ffffff" font-size="13" text-anchor="middle">Decouvrir le Catalogue</text>

  <!-- ── VALUE PROPS ── -->
  <rect x="0" y="340" width="800" height="100" fill="#f0f4f8"/>
  <rect x="40" y="358" width="210" height="62" rx="4" fill="#ffffff" stroke="#d0dde8" stroke-width="1"/>
  <text x="145" y="386" fill="#1a1a2e" font-size="13" text-anchor="middle" font-weight="bold">Qualite</text>
  <text x="145" y="406" fill="#666666" font-size="11" text-anchor="middle">Specimens certifies</text>
  <rect x="295" y="358" width="210" height="62" rx="4" fill="#ffffff" stroke="#d0dde8" stroke-width="1"/>
  <text x="400" y="386" fill="#1a1a2e" font-size="13" text-anchor="middle" font-weight="bold">Expertise</text>
  <text x="400" y="406" fill="#666666" font-size="11" text-anchor="middle">Eleveurs passionnes</text>
  <rect x="550" y="358" width="210" height="62" rx="4" fill="#ffffff" stroke="#d0dde8" stroke-width="1"/>
  <text x="655" y="386" fill="#1a1a2e" font-size="13" text-anchor="middle" font-weight="bold">Exclusivite Konishi</text>
  <text x="655" y="406" fill="#666666" font-size="11" text-anchor="middle">Lignee certifiee</text>

  <!-- ── SECTION TITLE ── -->
  <text x="400" y="470" fill="#1a1a2e" font-size="15" text-anchor="middle" font-weight="bold"> Nos Specimens en Vedette </text>

  <!-- ── CARD 1 ── -->
  <rect x="24" y="488" width="232" height="290" rx="8" fill="#ffffff" stroke="#dddddd" stroke-width="1.5"/>
  <rect x="24" y="488" width="232" height="160" rx="8" fill="#c8d4e0"/>
  <line x1="24" y1="488" x2="256" y2="648" stroke="#b0bfcb" stroke-width="1"/>
  <line x1="256" y1="488" x2="24" y2="648" stroke="#b0bfcb" stroke-width="1"/>
  <text x="140" y="674" fill="#333333" font-size="14" text-anchor="middle" font-weight="bold">Kohaku</text>
  <text x="140" y="694" fill="#666666" font-size="12" text-anchor="middle">45 cm  ·  ~3 ans</text>
  <text x="140" y="716" fill="#2d6a4f" font-size="16" text-anchor="middle" font-weight="bold">2 800 EUR</text>
  <rect x="48" y="730" width="184" height="34" rx="6" fill="#f5f0e8" stroke="#c8b89a" stroke-width="1"/>
  <text x="140" y="752" fill="#8b7355" font-size="12" text-anchor="middle">Voir la fiche</text>

  <!-- ── CARD 2 ── -->
  <rect x="284" y="488" width="232" height="290" rx="8" fill="#ffffff" stroke="#dddddd" stroke-width="1.5"/>
  <rect x="284" y="488" width="232" height="160" rx="8" fill="#c8d4e0"/>
  <line x1="284" y1="488" x2="516" y2="648" stroke="#b0bfcb" stroke-width="1"/>
  <line x1="516" y1="488" x2="284" y2="648" stroke="#b0bfcb" stroke-width="1"/>
  <text x="400" y="674" fill="#333333" font-size="14" text-anchor="middle" font-weight="bold">Sanke</text>
  <text x="400" y="694" fill="#666666" font-size="12" text-anchor="middle">52 cm  ·  ~4 ans</text>
  <text x="400" y="716" fill="#2d6a4f" font-size="16" text-anchor="middle" font-weight="bold">3 500 EUR</text>
  <rect x="308" y="730" width="184" height="34" rx="6" fill="#f5f0e8" stroke="#c8b89a" stroke-width="1"/>
  <text x="400" y="752" fill="#8b7355" font-size="12" text-anchor="middle">Voir la fiche</text>

  <!-- ── CARD 3 ── -->
  <rect x="544" y="488" width="232" height="290" rx="8" fill="#ffffff" stroke="#dddddd" stroke-width="1.5"/>
  <rect x="544" y="488" width="232" height="160" rx="8" fill="#c8d4e0"/>
  <line x1="544" y1="488" x2="776" y2="648" stroke="#b0bfcb" stroke-width="1"/>
  <line x1="776" y1="488" x2="544" y2="648" stroke="#b0bfcb" stroke-width="1"/>
  <text x="660" y="674" fill="#333333" font-size="14" text-anchor="middle" font-weight="bold">Showa</text>
  <text x="660" y="694" fill="#666666" font-size="12" text-anchor="middle">38 cm  ·  ~2 ans</text>
  <text x="660" y="716" fill="#2d6a4f" font-size="16" text-anchor="middle" font-weight="bold">1 900 EUR</text>
  <rect x="568" y="730" width="184" height="34" rx="6" fill="#f5f0e8" stroke="#c8b89a" stroke-width="1"/>
  <text x="660" y="752" fill="#8b7355" font-size="12" text-anchor="middle">Voir la fiche</text>

  <!-- ── CTA ── -->
  <rect x="290" y="800" width="220" height="40" rx="6" fill="#2d6a4f"/>
  <text x="400" y="825" fill="#ffffff" font-size="14" text-anchor="middle">Voir tout le catalogue</text>

  <!-- ── ABOUT ── -->
  <rect x="0" y="860" width="800" height="175" fill="#f5f0e8"/>
  <rect x="24" y="880" width="360" height="136" rx="6" fill="#c8d8c0" stroke="#a0b890" stroke-width="1"/>
  <line x1="24" y1="880" x2="384" y2="1016" stroke="#a0b890" stroke-width="1"/>
  <line x1="384" y1="880" x2="24" y2="1016" stroke="#a0b890" stroke-width="1"/>
  <text x="204" y="952" fill="#5a7a50" font-size="12" text-anchor="middle">[ Photo  Bassin et Elevage ]</text>
  <text x="420" y="912" fill="#1a1a2e" font-size="16" font-weight="bold">Notre Elevage</text>
  <text x="420" y="936" fill="#444444" font-size="13">Mathilde &amp; Emmanuel</text>
  <text x="420" y="958" fill="#777777" font-size="12">Passion et savoir-faire.</text>
  <rect x="420" y="976" width="160" height="32" rx="6" fill="none" stroke="#8b7355" stroke-width="1.5"/>
  <text x="500" y="997" fill="#8b7355" font-size="12" text-anchor="middle">En savoir plus</text>

  <!-- ── FOOTER ── -->
  <rect x="0" y="1035" width="800" height="65" fill="#1a1a2e"/>
  <text x="400" y="1061" fill="#aaaaaa" font-size="12" text-anchor="middle">© Koi's Story 2026</text>
  <text x="400" y="1081" fill="#666666" font-size="11" text-anchor="middle">Contact  ·  Mentions legales</text>

</svg>
